# board

vc  0.5 0.8 0.2
vc  0.4 0.7 0.2
vc  0.2 0.3 0.4

v  -20.0  0.0 -20.0
v  -20.0  0.0 -16.0
v  -20.0  0.0 -12.0
v  -20.0  0.0  -8.0
v  -20.0  0.0  -4.0
v  -20.0  0.0   0.0
v  -20.0  0.0   4.0
v  -20.0  0.0   8.0
v  -20.0  0.0  12.0
v  -20.0  0.0  16.0
v  -20.0  0.0  20.0
v  -16.0  0.0 -20.0
v  -16.0  0.0 -16.0
v  -16.0  0.0 -12.0
v  -16.0  0.0  -8.0
v  -16.0  0.0  -4.0
v  -16.0  0.0   0.0
v  -16.0  0.0   4.0
v  -16.0  0.0   8.0
v  -16.0  0.0  12.0
v  -16.0  0.0  16.0
v  -16.0  0.0  20.0
v  -12.0  0.0 -20.0
v  -12.0  0.0 -16.0
v  -12.0  0.0 -12.0
v  -12.0  0.0  -8.0
v  -12.0  0.0  -4.0
v  -12.0  0.0   0.0
v  -12.0  0.0   4.0
v  -12.0  0.0   8.0
v  -12.0  0.0  12.0
v  -12.0  0.0  16.0
v  -12.0  0.0  20.0
v   -8.0  0.0 -20.0
v   -8.0  0.0 -16.0
v   -8.0  0.0 -12.0
v   -8.0  0.0  -8.0
v   -8.0  0.0  -4.0
v   -8.0  0.0   0.0
v   -8.0  0.0   4.0
v   -8.0  0.0   8.0
v   -8.0  0.0  12.0
v   -8.0  0.0  16.0
v   -8.0  0.0  20.0
v   -4.0  0.0 -20.0
v   -4.0  0.0 -16.0
v   -4.0  0.0 -12.0
v   -4.0  0.0  -8.0
v   -4.0  0.0  -4.0
v   -4.0  0.0   0.0
v   -4.0  0.0   4.0
v   -4.0  0.0   8.0
v   -4.0  0.0  12.0
v   -4.0  0.0  16.0
v   -4.0  0.0  20.0
v    0.0  0.0 -20.0
v    0.0  0.0 -16.0
v    0.0  0.0 -12.0
v    0.0  0.0  -8.0
v    0.0  0.0  -4.0
v    0.0  0.0   0.0
v    0.0  0.0   4.0
v    0.0  0.0   8.0
v    0.0  0.0  12.0
v    0.0  0.0  16.0
v    0.0  0.0  20.0
v    4.0  0.0 -20.0
v    4.0  0.0 -16.0
v    4.0  0.0 -12.0
v    4.0  0.0  -8.0
v    4.0  0.0  -4.0
v    4.0  0.0   0.0
v    4.0  0.0   4.0
v    4.0  0.0   8.0
v    4.0  0.0  12.0
v    4.0  0.0  16.0
v    4.0  0.0  20.0
v    8.0  0.0 -20.0
v    8.0  0.0 -16.0
v    8.0  0.0 -12.0
v    8.0  0.0  -8.0
v    8.0  0.0  -4.0
v    8.0  0.0   0.0
v    8.0  0.0   4.0
v    8.0  0.0   8.0
v    8.0  0.0  12.0
v    8.0  0.0  16.0
v    8.0  0.0  20.0
v   12.0  0.0 -20.0
v   12.0  0.0 -16.0
v   12.0  0.0 -12.0
v   12.0  0.0  -8.0
v   12.0  0.0  -4.0
v   12.0  0.0   0.0
v   12.0  0.0   4.0
v   12.0  0.0   8.0
v   12.0  0.0  12.0
v   12.0  0.0  16.0
v   12.0  0.0  20.0
v   16.0  0.0 -20.0
v   16.0  0.0 -16.0
v   16.0  0.0 -12.0
v   16.0  0.0  -8.0
v   16.0  0.0  -4.0
v   16.0  0.0   0.0
v   16.0  0.0   4.0
v   16.0  0.0   8.0
v   16.0  0.0  12.0
v   16.0  0.0  16.0
v   16.0  0.0  20.0
v   20.0  0.0 -20.0
v   20.0  0.0 -16.0
v   20.0  0.0 -12.0
v   20.0  0.0  -8.0
v   20.0  0.0  -4.0
v   20.0  0.0   0.0
v   20.0  0.0   4.0
v   20.0  0.0   8.0
v   20.0  0.0  12.0
v   20.0  0.0  16.0
v   20.0  0.0  20.0

f    1///2   2///2  13///2
f   13///2  12///2   1///2
f    2///1   3///1  14///1
f   14///1  13///1   2///1
f    3///2   4///2  15///2
f   15///2  14///2   3///2
f    4///1   5///1  16///1
f   16///1  15///1   4///1
f    5///2   6///2  17///2
f   17///2  16///2   5///2
f    6///1   7///1  18///1
f   18///1  17///1   6///1
f    7///2   8///2  19///2
f   19///2  18///2   7///2
f    8///1   9///1  20///1
f   20///1  19///1   8///1
f    9///2  10///2  21///2
f   21///2  20///2   9///2
f   10///1  11///1  22///1
f   22///1  21///1  10///1
f   12///1  13///1  24///1
f   24///1  23///1  12///1
f   13///2  14///2  25///2
f   25///2  24///2  13///2
f   14///1  15///1  26///1
f   26///1  25///1  14///1
f   15///2  16///2  27///2
f   27///2  26///2  15///2
f   16///1  17///1  28///1
f   28///1  27///1  16///1
f   17///2  18///2  29///2
f   29///2  28///2  17///2
f   18///1  19///1  30///1
f   30///1  29///1  18///1
f   19///2  20///2  31///2
f   31///2  30///2  19///2
f   20///1  21///1  32///1
f   32///1  31///1  20///1
f   21///2  22///2  33///2
f   33///2  32///2  21///2
f   23///2  24///2  35///2
f   35///2  34///2  23///2
f   24///1  25///1  36///1
f   36///1  35///1  24///1
f   25///2  26///2  37///2
f   37///2  36///2  25///2
f   26///1  27///1  38///1
f   38///1  37///1  26///1
f   27///2  28///2  39///2
f   39///2  38///2  27///2
f   28///1  29///1  40///1
f   40///1  39///1  28///1
f   29///2  30///2  41///2
f   41///2  40///2  29///2
f   30///1  31///1  42///1
f   42///1  41///1  30///1
f   31///2  32///2  43///2
f   43///2  42///2  31///2
f   32///1  33///1  44///1
f   44///1  43///1  32///1
f   34///1  35///1  46///1
f   46///1  45///1  34///1
f   35///2  36///2  47///2
f   47///2  46///2  35///2
f   36///1  37///1  48///1
f   48///1  47///1  36///1
f   37///2  38///2  49///2
f   49///2  48///2  37///2
f   38///1  39///1  50///1
f   50///1  49///1  38///1
f   39///2  40///2  51///2
f   51///2  50///2  39///2
f   40///1  41///1  52///1
f   52///1  51///1  40///1
f   41///2  42///2  53///2
f   53///2  52///2  41///2
f   42///1  43///1  54///1
f   54///1  53///1  42///1
f   43///2  44///2  55///2
f   55///2  54///2  43///2
f   45///2  46///2  57///2
f   57///2  56///2  45///2
f   46///1  47///1  58///1
f   58///1  57///1  46///1
f   47///2  48///2  59///2
f   59///2  58///2  47///2
f   48///1  49///1  60///1
f   60///1  59///1  48///1
f   49///2  50///2  61///2
f   61///2  60///2  49///2
f   50///1  51///1  62///1
f   62///1  61///1  50///1
f   51///2  52///2  63///2
f   63///2  62///2  51///2
f   52///1  53///1  64///1
f   64///1  63///1  52///1
f   53///2  54///2  65///2
f   65///2  64///2  53///2
f   54///1  55///1  66///1
f   66///1  65///1  54///1
f   56///1  57///1  68///1
f   68///1  67///1  56///1
f   57///2  58///2  69///2
f   69///2  68///2  57///2
f   58///1  59///1  70///1
f   70///1  69///1  58///1
f   59///2  60///2  71///2
f   71///2  70///2  59///2
f   60///1  61///1  72///1
f   72///1  71///1  60///1
f   61///2  62///2  73///2
f   73///2  72///2  61///2
f   62///1  63///1  74///1
f   74///1  73///1  62///1
f   63///2  64///2  75///2
f   75///2  74///2  63///2
f   64///1  65///1  76///1
f   76///1  75///1  64///1
f   65///2  66///2  77///2
f   77///2  76///2  65///2
f   67///2  68///2  79///2
f   79///2  78///2  67///2
f   68///1  69///1  80///1
f   80///1  79///1  68///1
f   69///2  70///2  81///2
f   81///2  80///2  69///2
f   70///1  71///1  82///1
f   82///1  81///1  70///1
f   71///2  72///2  83///2
f   83///2  82///2  71///2
f   72///1  73///1  84///1
f   84///1  83///1  72///1
f   73///2  74///2  85///2
f   85///2  84///2  73///2
f   74///1  75///1  86///1
f   86///1  85///1  74///1
f   75///2  76///2  87///2
f   87///2  86///2  75///2
f   76///1  77///1  88///1
f   88///1  87///1  76///1
f   78///1  79///1  90///1
f   90///1  89///1  78///1
f   79///2  80///2  91///2
f   91///2  90///2  79///2
f   80///1  81///1  92///1
f   92///1  91///1  80///1
f   81///2  82///2  93///2
f   93///2  92///2  81///2
f   82///1  83///1  94///1
f   94///1  93///1  82///1
f   83///2  84///2  95///2
f   95///2  94///2  83///2
f   84///1  85///1  96///1
f   96///1  95///1  84///1
f   85///2  86///2  97///2
f   97///2  96///2  85///2
f   86///1  87///1  98///1
f   98///1  97///1  86///1
f   87///2  88///2  99///2
f   99///2  98///2  87///2
f   89///2  90///2 101///2
f  101///2 100///2  89///2
f   90///1  91///1 102///1
f  102///1 101///1  90///1
f   91///2  92///2 103///2
f  103///2 102///2  91///2
f   92///1  93///1 104///1
f  104///1 103///1  92///1
f   93///2  94///2 105///2
f  105///2 104///2  93///2
f   94///1  95///1 106///1
f  106///1 105///1  94///1
f   95///2  96///2 107///2
f  107///2 106///2  95///2
f   96///1  97///1 108///1
f  108///1 107///1  96///1
f   97///2  98///2 109///2
f  109///2 108///2  97///2
f   98///1  99///1 110///1
f  110///1 109///1  98///1
f  100///1 101///1 112///1
f  112///1 111///1 100///1
f  101///2 102///2 113///2
f  113///2 112///2 101///2
f  102///1 103///1 114///1
f  114///1 113///1 102///1
f  103///2 104///2 115///2
f  115///2 114///2 103///2
f  104///1 105///1 116///1
f  116///1 115///1 104///1
f  105///2 106///2 117///2
f  117///2 116///2 105///2
f  106///1 107///1 118///1
f  118///1 117///1 106///1
f  107///2 108///2 119///2
f  119///2 118///2 107///2
vn 0.0 1.0 0.0
f  108//1/1 109//1/1 120//1/1
f  120//1/1 119//1/1 108//1/1
f  109//1/2 110//1/2 121//1/2
f  121//1/2 120//1/2 109//1/2

v  -21.0 -0.5 -21.0
v  -21.0 -0.5  21.0
v   21.0 -0.5  21.0
v   21.0 -0.5 -21.0
v  -21.0 -1.0 -21.0
v  -21.0 -1.0  21.0
v   21.0 -1.0  21.0
v   21.0 -1.0 -21.0

f    1///3 122///3 123///3
f  123///3  11///3   1///3
f   11///3 123///3 124///3
f  124///3 121///3  11///3
f  121///3 124///3 125///3
f  125///3 111///3 121///3
f  111///3 125///3 122///3
f  122///3   1///3 111///3
f  122///3 126///3 127///3
f  127///3 123///3 122///3
f  123///3 127///3 128///3
f  128///3 124///3 123///3
f  124///3 128///3 129///3
f  129///3 125///3 124///3
f  125///3 129///3 126///3
f  126///3 122///3 125///3
f  126///3 129///3 128///3
f  128///3 127///3 126///3